<?xml version="1.0" standalone="no"?>
<!DOCTYPE svg PUBLIC "-//W3C//DTD SVG 20010904//EN"
 "http://www.w3.org/TR/2001/REC-SVG-20010904/DTD/svg10.dtd">
<svg version="1.0" xmlns="http://www.w3.org/2000/svg"
 width="512.000000pt" height="512.000000pt" viewBox="0 0 512.000000 512.000000"
 preserveAspectRatio="xMidYMid meet">

<g transform="translate(0.000000,512.000000) scale(0.100000,-0.100000)"
fill="#000000" stroke="none">
<path d="M0 2560 l0 -2560 2560 0 2560 0 0 2560 0 2560 -2560 0 -2560 0 0
-2560z m2632 1194 c40 -31 79 -59 85 -61 7 -3 51 18 99 47 l86 52 72 -77 71
-77 99 42 c54 22 99 40 101 38 14 -19 105 -182 105 -189 0 -8 -147 -308 -155
-318 -2 -1 -32 6 -67 17 -314 103 -720 111 -1053 23 -60 -16 -118 -32 -127
-36 -14 -6 -31 22 -97 153 l-80 159 54 94 c29 52 58 93 63 92 6 -2 51 -20 101
-42 l91 -39 66 79 c36 43 68 79 71 79 2 0 42 -22 89 -50 47 -27 87 -50 90 -50
3 0 40 27 82 60 42 33 78 60 79 60 2 0 35 -25 75 -56z m2408 -1094 l0 -530
-959 0 -958 0 -29 -41 c-74 -107 -226 -215 -359 -255 -94 -29 -257 -24 -360 9
-133 44 -255 128 -336 234 l-41 53 -954 0 -954 0 0 530 0 530 2475 0 2475 0 0
-530z"/>
<path d="M2481 3720 l-74 -60 -31 18 c-75 45 -144 82 -153 82 -5 0 -36 -34
-69 -75 -67 -86 -59 -84 -182 -32 l-82 35 -27 -46 c-14 -26 -35 -62 -45 -79
l-20 -33 72 -148 72 -149 82 28 c170 59 515 92 716 70 176 -20 333 -53 414
-86 30 -13 35 -13 40 1 3 9 6 17 6 19 0 1 -54 20 -120 41 -115 36 -143 56
-104 71 8 3 66 -11 128 -31 63 -20 116 -36 120 -36 3 0 15 18 26 39 l20 40
-57 21 c-31 11 -91 31 -135 43 -60 17 -78 26 -78 40 0 10 6 20 14 23 12 4 198
-53 256 -79 11 -5 21 6 39 42 l24 48 -48 79 c-26 43 -49 80 -50 82 -1 1 -44
-16 -96 -37 l-94 -40 -70 75 c-38 41 -73 74 -76 74 -3 0 -45 -23 -93 -50 l-87
-50 -79 60 c-43 33 -80 60 -82 60 -2 -1 -36 -28 -77 -60z m58 -116 c11 -36 11
-47 0 -60 -24 -30 -47 -35 -78 -20 -36 19 -45 42 -27 68 8 11 12 26 9 33 -3 8
5 15 19 17 58 10 64 7 77 -38z m138 34 c-2 -7 3 -25 11 -40 15 -26 15 -29 -8
-53 -13 -14 -34 -25 -46 -25 -32 0 -38 -15 -18 -50 18 -29 17 -30 -6 -55 -28
-30 -59 -32 -90 -7 -22 18 -23 21 -10 64 8 25 18 45 24 45 6 0 24 1 40 1 28 2
29 3 11 22 -13 14 -15 26 -9 47 4 15 9 33 10 38 1 6 2 12 3 15 0 3 22 6 47 8
34 2 45 0 41 -10z m543 -22 c0 -7 10 -21 23 -30 20 -14 20 -17 5 -26 -10 -6
-14 -18 -11 -30 4 -15 0 -20 -16 -20 -12 0 -31 -5 -42 -10 -15 -8 -19 -7 -19
4 0 8 -10 22 -22 30 -17 12 -20 18 -10 28 7 7 12 23 12 36 0 21 4 23 24 18 14
-3 28 -2 31 4 9 15 25 12 25 -4z m-1250 -11 c16 5 20 2 20 -17 0 -13 6 -30 13
-37 10 -10 9 -14 -5 -22 -10 -6 -18 -19 -18 -29 0 -21 -15 -27 -25 -9 -4 6
-19 7 -37 4 -27 -6 -29 -5 -24 13 4 11 0 24 -9 32 -20 17 -19 27 4 35 10 3 21
15 24 27 5 18 9 19 21 9 8 -7 24 -10 36 -6z m843 -29 c28 -8 35 -22 15 -28 -7
-3 -8 -10 -4 -17 6 -9 29 -12 77 -10 40 2 69 0 69 -6 1 -28 -13 -103 -22 -122
-16 -32 -40 -30 -32 2 7 28 -7 33 -26 10 -18 -22 -32 -18 -25 6 11 33 -26 20
-45 -16 -8 -17 -16 -32 -17 -34 -1 -1 -6 0 -12 3 -7 5 -7 15 0 33 13 35 2 43
-21 13 -10 -14 -22 -22 -26 -18 -4 4 -2 13 3 20 6 7 13 34 16 61 5 36 3 47 -7
47 -9 0 -14 11 -13 34 1 37 8 39 70 22z m-715 -163 c-6 -68 -97 -105 -169 -67
-43 22 -32 35 30 39 42 3 62 11 90 34 20 16 40 30 44 30 5 1 7 -16 5 -36z
m1041 -22 c9 -6 10 -11 2 -15 -14 -9 -51 2 -51 15 0 11 30 12 49 0z"/>
<path d="M1954 3161 c-2 -2 -4 -62 -4 -133 l0 -128 119 0 120 0 3 129 3 130
-118 3 c-65 2 -121 1 -123 -1z"/>
<path d="M2443 3154 c-2 -5 -2 -64 -1 -130 l3 -119 118 -3 117 -3 0 130 0 130
-116 3 c-76 2 -118 -1 -121 -8z"/>
<path d="M2933 3154 c-2 -5 -2 -64 -1 -130 l3 -119 123 -3 123 -3 -3 131 -3
131 -119 2 c-76 1 -120 -2 -123 -9z"/>
<path d="M2200 2770 l0 -130 120 0 120 0 0 130 0 130 -120 0 -120 0 0 -130z"/>
<path d="M2690 2770 l0 -130 120 0 120 0 0 130 0 130 -120 0 -120 0 0 -130z"/>
<path d="M1950 2503 l0 -133 120 0 120 0 0 129 0 130 -120 3 -120 3 0 -132z"/>
<path d="M2442 2503 l3 -128 118 -3 117 -3 0 131 0 130 -120 0 -121 0 3 -127z"/>
<path d="M2932 2503 l3 -128 120 0 120 0 3 128 3 127 -126 0 -126 0 3 -127z"/>
<path d="M2200 2240 l0 -130 120 0 120 0 0 130 0 130 -120 0 -120 0 0 -130z"/>
<path d="M2690 2240 l0 -130 120 0 120 0 0 130 0 130 -120 0 -120 0 0 -130z"/>
<path d="M2075 2076 c15 -19 46 -51 71 -71 l44 -36 0 70 0 71 -71 0 -70 0 26
-34z"/>
<path d="M2444 2097 c-2 -7 -3 -65 -2 -128 l3 -114 62 -9 c33 -5 86 -5 117 -2
l56 7 0 130 0 129 -115 0 c-86 0 -117 -3 -121 -13z"/>
<path d="M2937 2103 c-10 -9 -9 -133 1 -133 9 0 132 124 132 133 0 7 -126 8
-133 0z"/>
</g>
</svg>
