<?xml version="1.0" encoding="utf-8"?>
<!-- Generator: Adobe Illustrator 23.0.0, SVG Export Plug-In . SVG Version: 6.00 Build 0)  -->
<svg version="1.1" id="Layer_1" xmlns="http://www.w3.org/2000/svg" xmlns:xlink="http://www.w3.org/1999/xlink" x="0px" y="0px"
	 viewBox="0 0 1024 1024" style="enable-background:new 0 0 1024 1024;" xml:space="preserve">
<style type="text/css">
	.st0{opacity:0.16;fill:#717177;}
	.st1{fill:#2F388C;}
	.st2{fill:#161682;}
	.st3{fill:#6A69EB;}
	.st4{fill:url(#SVGID_1_);}
	.st5{fill:#77B0ED;}
	.st6{fill:#E0FCFB;}
	.st7{opacity:0.2;fill:url(#SVGID_2_);}
	.st8{opacity:0.4;fill:#9B9CE9;}
	.st9{opacity:0.4;}
	.st10{fill:#9B9CE9;}
	.st11{opacity:0.6;fill:#9EADD3;}
	.st12{fill:#D7D8FF;}
	.st13{fill:url(#SVGID_3_);}
	.st14{fill:#38AD81;}
	.st15{fill:#324DB2;}
	.st16{fill:#B1FFE9;}
	.st17{fill:#FCF09B;}
	.st18{fill:#CB71CD;}
	.st19{fill:#FFFFFF;}
	.st20{fill:#FDC524;}
	.st21{fill:#914399;}
	.st22{fill:#CE71D0;}
	.st23{fill:#7282BA;}
	.st24{fill:#34A47A;}
	.st25{enable-background:new    ;}
</style>
<g>
	<path class="st0" d="M116.93,706.89l429.67,228.46c8.92,4.74,19.69,4.44,28.33-0.81l255.79-155.27
		c19.05-11.56,18.2-39.48-1.52-49.86L400.22,503.49c-8.83-4.65-19.45-4.37-28.02,0.73L115.73,656.96
		C96.53,668.39,97.21,696.41,116.93,706.89z"/>
	<g>
		<g>
			<path class="st1" d="M859.95,688.48l-1.91-314.3c-0.11-17.68-5.99-26.23-17.62-32.89L419.53,103.71
				c-4.3-2.43-8.22-3.28-11.25-2.05l0,0c0,0,7.04-4.1,7.69-4.34l0,0l0,0c3.01-1.14,6.88-0.28,11.12,2.11L847.97,337
				c11.63,6.66,17.52,15.22,17.62,32.89l1.91,314.3c0.05,8.45-2.27,13.22-5.96,14.91l-6.3,3.55
				C858.2,700.51,859.99,695.92,859.95,688.48z"/>
			<polygon class="st1" points="853.72,703.52 853.71,703.52 853.71,703.52 			"/>
		</g>
	</g>
	<path class="st2" d="M848.36,721.69c0.04-0.53,0.02-1.06-0.04-1.58l-0.37-15.75h0c-0.32,3.92-3.24,8.02-8.71,11.35L572.96,877.88
		c-10.77,6.56-27.27,7.63-36.86,2.39L118.35,651.96c-4.1-2.24-6.25-5.27-6.55-8.52l-0.03,0l0.4,16.89l0.01,0
		c0.11,3.44,2.27,6.68,6.58,9.03l417.75,228.31c9.58,5.24,26.09,4.17,36.86-2.39l266.28-162.17c5.44-3.32,8.37-7.4,8.71-11.3h0.01
		L848.36,721.69z"/>
	<path class="st3" d="M229.12,564.45L120.5,630.6c-10.77,6.56-11.73,16.12-2.15,21.36L536.1,880.27c9.58,5.24,26.09,4.17,36.86-2.39
		l108.65-66.17L229.12,564.45z"/>
	<path class="st3" d="M681.61,811.71l157.63-96c10.77-6.56,11.73-16.12,2.15-21.36L423.64,466.03c-9.58-5.24-26.09-4.17-36.86,2.39
		l-157.66,96.02L681.61,811.71z"/>
	<linearGradient id="SVGID_1_" gradientUnits="userSpaceOnUse" x1="855.2966" y1="368.8853" x2="861.1974" y2="678.2585">
		<stop  offset="0" style="stop-color:#555555;stop-opacity:0"/>
		<stop  offset="0.5076" style="stop-color:#4C4C4C"/>
		<stop  offset="1" style="stop-color:#5C5C5C;stop-opacity:0"/>
	</linearGradient>
	<polygon class="st4" points="850.91,369.31 858.21,681 865.56,676.52 858.26,364.83 	"/>
	<path class="st5" d="M421.72,464.04L842.6,701.63c9.66,5.45,17.44,2.26,17.34-13.15l-1.91-314.3
		c-0.11-17.68-5.99-26.23-17.62-32.89L419.53,103.71c-9.66-5.45-17.44-2.97-17.34,13.15l1.91,314.3
		C404.22,451.69,411.16,458.11,421.72,464.04z"/>
	<path class="st3" d="M418.38,105.52l423.21,238.9c7.8,4.4,14.19,15.18,14.24,24.01l1.97,323.35c0.05,8.84-6.25,12.45-14.05,8.04
		l-423.21-238.9c-7.8-4.4-14.19-15.18-14.24-24.01l-1.97-323.35C404.28,104.72,410.58,101.11,418.38,105.52z"/>
	<path id="XMLID_1_" class="st6" d="M841.34,659.07l-1.8-295.73c-0.01-1.03-0.57-1.98-1.47-2.49L425.05,127.71
		c-1.95-1.1-4.36,0.3-4.35,2.52l1.8,295.73c0.01,1.03,0.57,1.98,1.47,2.49l413.02,233.14C838.93,662.69,841.35,661.29,841.34,659.07
		z"/>
	
		<linearGradient id="SVGID_2_" gradientUnits="userSpaceOnUse" x1="459.56" y1="128.3723" x2="621.4309" y2="448.2603" gradientTransform="matrix(0.9998 0.0176 -0.0176 0.9998 7.545 -10.6354)">
		<stop  offset="0" style="stop-color:#05CBFF"/>
		<stop  offset="0.2023" style="stop-color:#05C6FF;stop-opacity:0.7977"/>
		<stop  offset="0.4471" style="stop-color:#05B7FF;stop-opacity:0.5529"/>
		<stop  offset="0.7139" style="stop-color:#049FFF;stop-opacity:0.2861"/>
		<stop  offset="0.9947" style="stop-color:#047DFF;stop-opacity:5.298674e-03"/>
		<stop  offset="1" style="stop-color:#047CFF;stop-opacity:0"/>
	</linearGradient>
	<path class="st7" d="M738.97,307.02L551.38,200.18l-125.54-71.5c-1.91-1.09-4.29,0.3-4.27,2.5l1.72,293.36
		c0.01,1.02,0.56,1.96,1.44,2.47l55.44,31.58L738.97,307.02z"/>
	<g>
		<g>
			<path class="st8" d="M304.95,691.72l56.15-34.2c3.35-2.04,8.86-2.16,12.32-0.27l139.72,76.36c3.46,1.89,3.55,5.08,0.2,7.11
				l-56.15,34.2L304.95,691.72z"/>
			<g class="st9">
				<path class="st10" d="M379.95,735.4l74.92,40.95l-30.4,18.51c-3.35,2.04-8.86,2.16-12.32,0.27l-68.66-37.52L379.95,735.4z"/>
				<path class="st10" d="M377.54,734.08l-36.46,22.2l-68.66-37.52c-3.46-1.89-3.55-5.08-0.2-7.11l30.4-18.51L377.54,734.08z"/>
			</g>
		</g>
	</g>
	<g>
		<path class="st11" d="M513.22,736.7L373.5,660.34c-3.46-1.89-8.98-1.77-12.32,0.27l-53.52,32.59l-2.71-1.48l56.15-34.2
			c3.35-2.04,8.86-2.16,12.32-0.27l139.72,76.36c2.44,1.33,3.17,3.31,2.23,5.07C514.95,737.95,514.26,737.26,513.22,736.7z"/>
		<g>
			<polygon class="st11" points="380.02,738.48 346.2,759.08 343.49,757.6 379.95,735.4 454.87,776.34 452.24,777.95 			"/>
			<path class="st11" d="M302.69,696.22l-30.4,18.51c-0.99,0.6-1.64,1.31-2.03,2.04c-1.01-1.71-0.39-3.7,1.96-5.13l30.4-18.51
				l74.92,40.95l-2.64,1.6L302.69,696.22z"/>
		</g>
	</g>
	<g>
		<g>
			<g>
				<path class="st12" d="M747.84,717.8l20.9,11.42c1.28,0.7,3.48,0.56,4.91-0.32l19.49-11.87c1.44-0.88,1.56-2.15,0.29-2.85
					l-20.9-11.42c-1.28-0.7-3.48-0.56-4.91,0.32l-19.49,11.87C746.69,715.83,746.56,717.1,747.84,717.8z"/>
				<path class="st12" d="M719.55,702.34l20.91,11.42c1.28,0.7,3.48,0.56,4.91-0.32l19.49-11.87c1.44-0.87,1.57-2.15,0.29-2.85
					l-20.9-11.42c-1.28-0.7-3.48-0.56-4.91,0.32l-19.49,11.87C718.4,700.37,718.27,701.65,719.55,702.34z"/>
				<path class="st12" d="M691.27,686.89l20.9,11.42c1.28,0.7,3.48,0.55,4.91-0.32l19.49-11.87c1.44-0.87,1.56-2.15,0.29-2.85
					l-20.9-11.42c-1.28-0.7-3.48-0.56-4.91,0.32l-19.49,11.87C690.12,684.91,689.99,686.19,691.27,686.89z"/>
				<path class="st12" d="M662.98,671.43l20.9,11.42c1.28,0.7,3.48,0.56,4.92-0.32l19.49-11.87c1.44-0.88,1.56-2.15,0.29-2.85
					l-20.9-11.43c-1.28-0.7-3.48-0.56-4.91,0.32l-19.49,11.87C661.83,669.46,661.7,670.73,662.98,671.43z"/>
				<path class="st12" d="M634.7,655.97l20.91,11.42c1.28,0.7,3.48,0.56,4.91-0.32l19.49-11.87c1.44-0.88,1.56-2.15,0.29-2.85
					l-20.91-11.42c-1.28-0.7-3.48-0.55-4.91,0.32l-19.49,11.87C633.55,654,633.42,655.27,634.7,655.97z"/>
				<path class="st12" d="M606.41,640.51l20.9,11.42c1.28,0.7,3.48,0.56,4.91-0.32l19.49-11.87c1.44-0.87,1.56-2.15,0.29-2.85
					l-20.9-11.42c-1.28-0.7-3.48-0.56-4.91,0.32l-19.49,11.87C605.26,638.54,605.14,639.81,606.41,640.51z"/>
				<path class="st12" d="M578.13,625.05l20.9,11.42c1.28,0.7,3.48,0.56,4.91-0.32l19.49-11.87c1.44-0.87,1.56-2.15,0.29-2.85
					l-20.91-11.42c-1.28-0.7-3.48-0.56-4.91,0.32l-19.49,11.87C576.98,623.08,576.85,624.36,578.13,625.05z"/>
				<path class="st12" d="M549.85,609.6l20.9,11.42c1.28,0.7,3.48,0.56,4.91-0.32l19.49-11.87c1.44-0.88,1.56-2.15,0.29-2.85
					l-20.9-11.42c-1.28-0.7-3.48-0.55-4.91,0.32l-19.49,11.87C548.7,607.62,548.57,608.9,549.85,609.6z"/>
				<path class="st12" d="M521.56,594.14l20.9,11.42c1.28,0.7,3.48,0.55,4.92-0.32l19.49-11.87c1.44-0.87,1.56-2.15,0.29-2.85
					l-20.9-11.42c-1.28-0.7-3.48-0.56-4.91,0.32l-19.5,11.87C520.41,592.17,520.28,593.44,521.56,594.14z"/>
				<path class="st12" d="M493.28,578.68l20.9,11.42c1.28,0.7,3.48,0.56,4.92-0.32l19.49-11.87c1.44-0.87,1.56-2.15,0.29-2.85
					l-20.9-11.42c-1.28-0.7-3.48-0.56-4.91,0.32l-19.49,11.87C492.13,576.71,492,577.98,493.28,578.68z"/>
				<path class="st12" d="M464.99,563.22l20.9,11.42c1.28,0.7,3.48,0.56,4.91-0.32l19.49-11.87c1.44-0.88,1.56-2.15,0.29-2.85
					l-20.9-11.42c-1.28-0.7-3.48-0.56-4.91,0.32l-19.49,11.87C463.84,561.25,463.71,562.53,464.99,563.22z"/>
				<path class="st12" d="M436.71,547.77l20.9,11.42c1.28,0.7,3.48,0.56,4.91-0.32L482.02,547c1.44-0.87,1.56-2.15,0.29-2.85
					l-20.9-11.43c-1.28-0.7-3.48-0.55-4.91,0.32L437,544.92C435.56,545.79,435.43,547.07,436.71,547.77z"/>
				<path class="st12" d="M408.42,532.31l20.9,11.43c1.28,0.7,3.48,0.56,4.92-0.32l19.49-11.87c1.44-0.87,1.56-2.15,0.29-2.85
					l-20.9-11.42c-1.28-0.7-3.48-0.56-4.91,0.32l-19.49,11.87C407.27,530.33,407.15,531.61,408.42,532.31z"/>
				<path class="st12" d="M367.36,509.86l33.68,18.41c1.28,0.7,3.48,0.56,4.91-0.32l19.49-11.87c1.44-0.88,1.56-2.15,0.29-2.85
					l-33.68-18.41c-1.28-0.7-3.48-0.56-4.91,0.32l-19.49,11.87C366.21,507.89,366.08,509.17,367.36,509.86z"/>
			</g>
			<g>
				<path class="st12" d="M385.6,522.91l-20.9-11.42c-1.28-0.7-3.48-0.56-4.91,0.32l-19.49,11.87c-1.44,0.87-1.56,2.15-0.29,2.85
					l20.9,11.42c1.28,0.7,3.48,0.56,4.91-0.32l19.49-11.87C386.75,524.89,386.88,523.61,385.6,522.91z"/>
				<path class="st12" d="M413.89,538.37l-20.9-11.42c-1.28-0.7-3.48-0.56-4.91,0.32l-19.49,11.87c-1.44,0.87-1.56,2.15-0.29,2.85
					l20.9,11.42c1.28,0.7,3.48,0.56,4.91-0.32l19.49-11.87C415.04,540.34,415.16,539.07,413.89,538.37z"/>
				<path class="st12" d="M442.17,553.83l-20.91-11.42c-1.28-0.7-3.48-0.56-4.91,0.32l-19.49,11.87c-1.44,0.88-1.56,2.15-0.29,2.85
					l20.9,11.42c1.28,0.7,3.48,0.56,4.91-0.32l19.5-11.87C443.32,555.8,443.45,554.53,442.17,553.83z"/>
				<path class="st12" d="M470.46,569.28l-20.9-11.42c-1.28-0.7-3.48-0.56-4.92,0.32l-19.49,11.87c-1.44,0.87-1.56,2.15-0.29,2.85
					l20.91,11.42c1.28,0.7,3.48,0.56,4.91-0.32l19.49-11.87C471.6,571.26,471.73,569.98,470.46,569.28z"/>
				<path class="st12" d="M498.74,584.74l-20.91-11.42c-1.28-0.7-3.48-0.56-4.91,0.32l-19.5,11.87c-1.44,0.87-1.56,2.15-0.29,2.85
					l20.91,11.42c1.28,0.7,3.48,0.56,4.91-0.32l19.49-11.87C499.89,586.72,500.02,585.44,498.74,584.74z"/>
				<path class="st12" d="M527.02,600.2l-20.9-11.42c-1.28-0.7-3.48-0.56-4.91,0.32l-19.49,11.87c-1.44,0.87-1.56,2.15-0.29,2.85
					l20.9,11.43c1.28,0.7,3.48,0.56,4.91-0.32l19.49-11.87C528.17,602.17,528.3,600.9,527.02,600.2z"/>
				<path class="st12" d="M555.31,615.66l-20.9-11.43c-1.28-0.7-3.48-0.55-4.92,0.32L510,616.43c-1.44,0.87-1.56,2.15-0.29,2.85
					l20.9,11.43c1.28,0.7,3.48,0.56,4.91-0.32l19.49-11.87C556.46,617.63,556.59,616.36,555.31,615.66z"/>
				<path class="st12" d="M583.59,631.12l-20.9-11.43c-1.28-0.7-3.48-0.55-4.91,0.32l-19.49,11.87c-1.44,0.87-1.56,2.15-0.29,2.85
					l20.9,11.42c1.28,0.7,3.48,0.56,4.91-0.32l19.49-11.87C584.74,633.09,584.87,631.81,583.59,631.12z"/>
				<path class="st12" d="M611.88,646.57l-20.9-11.42c-1.28-0.7-3.48-0.56-4.91,0.32l-19.49,11.87c-1.44,0.87-1.56,2.15-0.29,2.85
					l20.91,11.42c1.28,0.7,3.48,0.56,4.91-0.32l19.49-11.87C613.03,648.55,613.15,647.27,611.88,646.57z"/>
				<path class="st12" d="M640.16,662.03l-20.9-11.42c-1.28-0.7-3.48-0.56-4.91,0.32l-19.49,11.87c-1.44,0.88-1.56,2.15-0.29,2.85
					l20.9,11.42c1.28,0.7,3.48,0.56,4.92-0.32l19.49-11.87C641.31,664.01,641.44,662.73,640.16,662.03z"/>
				<path class="st12" d="M668.44,677.49l-20.9-11.42c-1.28-0.7-3.48-0.56-4.91,0.32l-19.49,11.87c-1.44,0.88-1.56,2.15-0.29,2.85
					l20.9,11.42c1.28,0.7,3.48,0.55,4.91-0.32l19.49-11.87C669.59,679.46,669.72,678.19,668.44,677.49z"/>
				<path class="st12" d="M696.73,692.95l-20.9-11.42c-1.28-0.7-3.48-0.56-4.91,0.32l-19.49,11.87c-1.44,0.87-1.56,2.15-0.29,2.85
					l20.9,11.42c1.28,0.7,3.48,0.56,4.91-0.32l19.49-11.87C697.88,694.92,698.01,693.65,696.73,692.95z"/>
				<path class="st12" d="M725.01,708.41l-20.9-11.42c-1.28-0.7-3.48-0.55-4.91,0.32l-19.49,11.87c-1.44,0.87-1.56,2.15-0.29,2.85
					l20.9,11.42c1.28,0.7,3.48,0.56,4.91-0.32l19.49-11.87C726.16,710.38,726.29,709.1,725.01,708.41z"/>
				<path class="st12" d="M766.08,730.85l-33.68-18.41c-1.28-0.7-3.48-0.56-4.91,0.32l-19.49,11.87c-1.44,0.87-1.56,2.15-0.29,2.85
					l33.69,18.41c1.28,0.7,3.48,0.56,4.91-0.32l19.49-11.87C767.23,732.82,767.36,731.55,766.08,730.85z"/>
			</g>
			<g>
				<path class="st12" d="M378.66,550.73l-41.32-22.58c-1.28-0.7-3.48-0.56-4.91,0.32l-19.49,11.87c-1.44,0.88-1.56,2.15-0.29,2.85
					l41.32,22.58c1.28,0.7,3.48,0.56,4.91-0.32l19.49-11.87C379.81,552.7,379.94,551.43,378.66,550.73z"/>
				<path class="st12" d="M738.49,747.38l-41.32-22.58c-1.28-0.7-3.48-0.56-4.91,0.32l-19.49,11.87c-1.44,0.88-1.56,2.15-0.29,2.85
					l41.32,22.58c1.28,0.7,3.48,0.55,4.91-0.32l19.49-11.87C739.64,749.36,739.77,748.08,738.49,747.38z"/>
				<path class="st12" d="M406.95,566.19l-20.9-11.42c-1.28-0.7-3.48-0.56-4.91,0.32l-19.49,11.87c-1.44,0.87-1.57,2.15-0.29,2.85
					l20.9,11.43c1.28,0.7,3.48,0.56,4.91-0.32l19.49-11.87C408.1,568.16,408.22,566.89,406.95,566.19z"/>
				<path class="st12" d="M435.23,581.65l-20.9-11.42c-1.28-0.7-3.48-0.56-4.91,0.32l-19.49,11.87c-1.44,0.88-1.56,2.15-0.29,2.85
					l20.9,11.43c1.28,0.7,3.48,0.55,4.91-0.32l19.49-11.87C436.38,583.62,436.51,582.34,435.23,581.65z"/>
				<path class="st12" d="M463.51,597.1l-20.9-11.42c-1.28-0.7-3.48-0.56-4.91,0.32l-19.49,11.87c-1.44,0.87-1.56,2.15-0.29,2.85
					l20.91,11.42c1.28,0.7,3.48,0.56,4.91-0.32l19.49-11.87C464.66,599.08,464.79,597.8,463.51,597.1z"/>
				<path class="st12" d="M491.8,612.56l-20.9-11.42c-1.28-0.7-3.48-0.55-4.91,0.32l-19.49,11.87c-1.44,0.87-1.56,2.15-0.29,2.85
					l20.9,11.42c1.28,0.7,3.48,0.56,4.91-0.32l19.49-11.87C492.95,614.54,493.08,613.26,491.8,612.56z"/>
				<path class="st12" d="M520.08,628.02l-20.9-11.42c-1.28-0.7-3.48-0.56-4.91,0.32l-19.49,11.87c-1.44,0.88-1.56,2.15-0.29,2.85
					l20.9,11.42c1.28,0.7,3.48,0.56,4.92-0.32l19.49-11.87C521.23,629.99,521.36,628.72,520.08,628.02z"/>
				<path class="st12" d="M548.37,643.48l-20.91-11.42c-1.28-0.7-3.48-0.56-4.91,0.32l-19.49,11.87c-1.44,0.87-1.56,2.15-0.29,2.85
					l20.9,11.42c1.28,0.7,3.48,0.55,4.92-0.32l19.49-11.87C549.52,645.45,549.65,644.18,548.37,643.48z"/>
				<path class="st12" d="M576.65,658.94l-20.9-11.42c-1.28-0.7-3.48-0.56-4.91,0.32l-19.49,11.87c-1.44,0.87-1.56,2.15-0.29,2.85
					l20.9,11.42c1.28,0.7,3.48,0.56,4.91-0.32l19.49-11.87C577.8,660.91,577.93,659.63,576.65,658.94z"/>
				<path class="st12" d="M604.94,674.39l-20.9-11.42c-1.28-0.7-3.48-0.56-4.91,0.32l-19.49,11.87c-1.44,0.88-1.56,2.15-0.29,2.85
					l20.9,11.42c1.28,0.7,3.48,0.56,4.91-0.32l19.49-11.87C606.09,676.37,606.21,675.09,604.94,674.39z"/>
				<path class="st12" d="M633.22,689.85l-20.91-11.42c-1.28-0.7-3.48-0.56-4.91,0.32l-19.49,11.87c-1.44,0.88-1.56,2.15-0.29,2.85
					l20.9,11.43c1.28,0.7,3.48,0.55,4.91-0.32l19.49-11.87C634.37,691.82,634.5,690.55,633.22,689.85z"/>
				<path class="st12" d="M661.5,705.31l-20.91-11.42c-1.28-0.7-3.48-0.56-4.91,0.32l-19.49,11.87c-1.44,0.88-1.56,2.15-0.29,2.85
					l20.9,11.43c1.28,0.7,3.48,0.55,4.91-0.32l19.49-11.87C662.65,707.28,662.78,706.01,661.5,705.31z"/>
				<path class="st12" d="M689.79,720.77l-20.9-11.43c-1.28-0.7-3.48-0.56-4.91,0.32l-19.49,11.87c-1.44,0.87-1.56,2.15-0.29,2.85
					l20.9,11.42c1.28,0.7,3.48,0.56,4.91-0.32l19.49-11.87C690.94,722.74,691.07,721.46,689.79,720.77z"/>
			</g>
			<g>
				<path class="st12" d="M365.35,575.06l-55.36-30.26c-1.28-0.7-3.48-0.56-4.91,0.32L285.58,557c-1.44,0.87-1.56,2.15-0.29,2.85
					l55.36,30.26c1.28,0.7,3.48,0.56,4.91-0.32l19.49-11.87C366.5,577.04,366.62,575.76,365.35,575.06z"/>
				<path class="st12" d="M393.63,590.52l-20.91-11.42c-1.28-0.7-3.48-0.55-4.91,0.32l-19.49,11.87c-1.44,0.87-1.56,2.15-0.29,2.85
					l20.9,11.42c1.28,0.7,3.48,0.56,4.91-0.32l19.49-11.87C394.78,592.5,394.91,591.22,393.63,590.52z"/>
				<path class="st12" d="M421.91,605.98l-20.9-11.42c-1.28-0.7-3.48-0.56-4.91,0.32l-19.49,11.87c-1.44,0.87-1.56,2.15-0.29,2.85
					l20.9,11.43c1.28,0.7,3.48,0.56,4.91-0.32l19.49-11.87C423.06,607.96,423.19,606.68,421.91,605.98z"/>
				<path class="st12" d="M450.2,621.44l-20.91-11.42c-1.28-0.7-3.48-0.56-4.91,0.32l-19.49,11.87c-1.44,0.88-1.56,2.15-0.29,2.85
					l20.9,11.43c1.28,0.7,3.48,0.56,4.92-0.32l19.49-11.87C451.35,623.41,451.48,622.14,450.2,621.44z"/>
				<path class="st12" d="M478.48,636.9l-20.9-11.42c-1.28-0.7-3.48-0.56-4.92,0.32l-19.49,11.87c-1.44,0.87-1.56,2.15-0.29,2.85
					l20.9,11.43c1.28,0.7,3.48,0.55,4.91-0.32l19.49-11.87C479.63,638.87,479.76,637.59,478.48,636.9z"/>
				<path class="st12" d="M506.77,652.35l-20.9-11.43c-1.28-0.7-3.48-0.55-4.91,0.32l-19.49,11.87c-1.44,0.87-1.56,2.15-0.29,2.85
					l20.9,11.42c1.28,0.7,3.48,0.56,4.91-0.32l19.49-11.87C507.92,654.33,508.04,653.05,506.77,652.35z"/>
				<path class="st12" d="M535.05,667.81l-20.9-11.42c-1.28-0.7-3.48-0.56-4.91,0.32l-19.49,11.87c-1.44,0.88-1.56,2.15-0.29,2.85
					l20.9,11.42c1.28,0.7,3.48,0.56,4.91-0.32l19.49-11.87C536.2,669.79,536.33,668.51,535.05,667.81z"/>
				<path class="st12" d="M563.34,683.27l-20.9-11.42c-1.28-0.7-3.48-0.56-4.91,0.32l-19.49,11.87c-1.44,0.87-1.56,2.15-0.29,2.85
					l20.9,11.42c1.28,0.7,3.48,0.55,4.91-0.32l19.49-11.87C564.49,685.24,564.61,683.97,563.34,683.27z"/>
				<path class="st12" d="M591.62,698.73l-20.9-11.42c-1.28-0.7-3.48-0.56-4.92,0.32l-19.49,11.87c-1.44,0.87-1.56,2.15-0.29,2.85
					l20.9,11.42c1.28,0.7,3.48,0.56,4.91-0.32l19.49-11.87C592.77,700.7,592.9,699.43,591.62,698.73z"/>
				<path class="st12" d="M619.9,714.19L599,702.76c-1.28-0.7-3.48-0.56-4.91,0.32l-19.49,11.87c-1.44,0.88-1.57,2.15-0.29,2.85
					l20.9,11.42c1.28,0.7,3.48,0.56,4.91-0.32l19.49-11.87C621.05,716.16,621.18,714.88,619.9,714.19z"/>
				<path class="st12" d="M648.19,729.64l-20.9-11.42c-1.28-0.7-3.48-0.56-4.91,0.32l-19.49,11.87c-1.44,0.88-1.56,2.15-0.29,2.85
					l20.9,11.42c1.28,0.7,3.48,0.56,4.92-0.32l19.49-11.87C649.34,731.62,649.47,730.34,648.19,729.64z"/>
				<path class="st12" d="M711.13,764.04l-55.56-30.37c-1.28-0.7-3.48-0.55-4.91,0.32l-19.49,11.87c-1.44,0.87-1.56,2.15-0.29,2.85
					l55.56,30.37c1.28,0.7,3.48,0.56,4.91-0.32l19.49-11.87C712.28,766.02,712.41,764.74,711.13,764.04z"/>
			</g>
			<g>
				<path class="st12" d="M564.26,715.39l-134.04-73.26c-1.28-0.7-3.48-0.56-4.91,0.32l-19.49,11.87c-1.44,0.88-1.56,2.15-0.29,2.85
					l134.04,73.26c1.28,0.7,3.48,0.55,4.92-0.32l19.49-11.87C565.41,717.36,565.54,716.09,564.26,715.39z"/>
				<path class="st12" d="M388.38,619.27l-20.9-11.42c-1.28-0.7-3.48-0.56-4.91,0.32l-19.49,11.87c-1.44,0.87-1.56,2.15-0.29,2.85
					l20.91,11.42c1.28,0.7,3.48,0.56,4.91-0.32l19.49-11.87C389.53,621.24,389.66,619.97,388.38,619.27z"/>
				<path class="st12" d="M422.84,638.1l-27.08-14.8c-1.28-0.7-3.48-0.56-4.91,0.32l-19.49,11.87c-1.44,0.88-1.56,2.15-0.29,2.85
					l27.08,14.8c1.28,0.7,3.48,0.56,4.91-0.32l19.49-11.87C423.99,640.07,424.12,638.8,422.84,638.1z"/>
				<path class="st12" d="M606.1,738.25l20.9,11.42c1.28,0.7,1.15,1.97-0.29,2.85l-19.49,11.87c-1.44,0.88-3.64,1.02-4.91,0.32
					l-20.9-11.42c-1.28-0.7-1.15-1.97,0.29-2.85l19.49-11.87C602.62,737.7,604.82,737.56,606.1,738.25z"/>
				<path class="st12" d="M571.64,719.42l27.08,14.8c1.28,0.7,1.15,1.97-0.29,2.85l-19.49,11.87c-1.44,0.87-3.64,1.02-4.91,0.32
					l-27.08-14.8c-1.28-0.7-1.15-1.97,0.29-2.85l19.49-11.87C568.16,718.87,570.36,718.72,571.64,719.42z"/>
				<path class="st12" d="M303.53,572.9l-20.9-11.43c-1.28-0.7-3.48-0.56-4.91,0.32l-19.49,11.87c-1.44,0.88-1.56,2.15-0.29,2.85
					l20.9,11.43c1.28,0.7,3.48,0.56,4.91-0.32l19.49-11.87C304.68,574.87,304.81,573.59,303.53,572.9z"/>
				<path class="st12" d="M331.82,588.35l-20.9-11.42c-1.28-0.7-3.48-0.56-4.91,0.32l-19.49,11.87c-1.44,0.88-1.56,2.15-0.29,2.85
					l20.9,11.42c1.28,0.7,3.48,0.55,4.91-0.32l19.49-11.87C332.96,590.33,333.09,589.05,331.82,588.35z"/>
				<path class="st12" d="M360.1,603.81l-20.91-11.42c-1.28-0.7-3.48-0.56-4.91,0.32l-19.49,11.87c-1.44,0.87-1.56,2.15-0.29,2.85
					l20.9,11.42c1.28,0.7,3.48,0.55,4.91-0.32l19.49-11.87C361.25,605.78,361.38,604.51,360.1,603.81z"/>
				<path class="st12" d="M683.78,780.71l-49.39-26.99c-1.28-0.7-3.48-0.56-4.91,0.32l-19.49,11.87c-1.44,0.87-1.56,2.15-0.29,2.85
					l49.39,26.99c1.28,0.7,3.48,0.56,4.91-0.32l19.49-11.87C684.92,782.68,685.05,781.4,683.78,780.71z"/>
			</g>
			<g>
				<path class="st12" d="M775.19,701.14l20.9,11.43c1.28,0.7,3.48,0.55,4.91-0.32l9.69-5.9c1.44-0.87,1.56-2.15,0.29-2.85
					l-20.9-11.42c-1.28-0.7-3.48-0.56-4.91,0.32l-9.69,5.9C774.04,699.17,773.91,700.44,775.19,701.14z"/>
				<path class="st12" d="M746.91,685.68l20.9,11.43c1.28,0.7,3.48,0.56,4.91-0.32l9.69-5.9c1.44-0.87,1.56-2.15,0.29-2.85
					l-20.9-11.42c-1.28-0.7-3.48-0.56-4.91,0.32l-9.69,5.9C745.76,683.71,745.63,684.98,746.91,685.68z"/>
				<path class="st12" d="M718.62,670.23l20.9,11.42c1.28,0.7,3.48,0.56,4.91-0.32l9.69-5.9c1.44-0.87,1.56-2.15,0.29-2.85
					l-20.9-11.42c-1.28-0.7-3.48-0.56-4.92,0.32l-9.69,5.9C717.47,668.25,717.35,669.53,718.62,670.23z"/>
				<path class="st12" d="M690.34,654.77l20.9,11.42c1.28,0.7,3.48,0.56,4.91-0.32l9.69-5.9c1.44-0.87,1.57-2.15,0.29-2.85
					l-20.9-11.42c-1.28-0.7-3.48-0.56-4.91,0.32l-9.69,5.9C689.19,652.79,689.06,654.07,690.34,654.77z"/>
				<path class="st12" d="M662.05,639.31l20.91,11.42c1.28,0.7,3.48,0.56,4.91-0.32l9.69-5.9c1.44-0.87,1.56-2.15,0.29-2.85
					l-20.9-11.42c-1.28-0.7-3.48-0.56-4.91,0.32l-9.69,5.9C660.91,637.34,660.78,638.61,662.05,639.31z"/>
				<path class="st12" d="M633.77,623.85l20.9,11.42c1.28,0.7,3.48,0.56,4.91-0.32l9.69-5.9c1.44-0.87,1.56-2.15,0.29-2.85
					l-20.9-11.42c-1.28-0.7-3.48-0.56-4.91,0.32l-9.69,5.9C632.62,621.88,632.49,623.15,633.77,623.85z"/>
				<path class="st12" d="M605.49,608.39l20.9,11.42c1.28,0.7,3.48,0.56,4.91-0.32l9.69-5.9c1.44-0.88,1.56-2.15,0.29-2.85
					l-20.9-11.42c-1.28-0.7-3.48-0.56-4.92,0.32l-9.69,5.9C604.34,606.42,604.21,607.7,605.49,608.39z"/>
				<path class="st12" d="M577.2,592.94l20.9,11.43c1.28,0.7,3.48,0.55,4.92-0.32l9.69-5.9c1.44-0.88,1.56-2.15,0.29-2.85
					l-20.9-11.42c-1.28-0.7-3.48-0.56-4.92,0.32l-9.69,5.9C576.05,590.96,575.93,592.24,577.2,592.94z"/>
				<path class="st12" d="M548.92,577.48l20.91,11.42c1.28,0.7,3.48,0.56,4.91-0.32l9.69-5.9c1.44-0.87,1.56-2.15,0.29-2.85
					l-20.91-11.42c-1.28-0.7-3.48-0.56-4.91,0.32l-9.69,5.9C547.77,575.5,547.64,576.78,548.92,577.48z"/>
				<path class="st12" d="M520.63,562.02l20.91,11.42c1.28,0.7,3.48,0.56,4.91-0.32l9.69-5.9c1.44-0.87,1.57-2.15,0.29-2.85
					l-20.9-11.42c-1.28-0.7-3.48-0.56-4.91,0.32l-9.69,5.9C519.49,560.05,519.36,561.32,520.63,562.02z"/>
				<path class="st12" d="M492.35,546.56l20.9,11.42c1.28,0.7,3.48,0.56,4.91-0.32l9.69-5.9c1.44-0.87,1.56-2.15,0.29-2.85
					l-20.91-11.43c-1.28-0.7-3.48-0.56-4.91,0.32l-9.69,5.9C491.2,544.59,491.07,545.86,492.35,546.56z"/>
				<path class="st12" d="M464.07,531.11l20.9,11.42c1.28,0.7,3.48,0.56,4.91-0.32l9.69-5.9c1.44-0.87,1.56-2.15,0.29-2.85
					l-20.9-11.43c-1.28-0.7-3.48-0.56-4.92,0.32l-9.69,5.9C462.92,529.13,462.79,530.41,464.07,531.11z"/>
				<path class="st12" d="M435.78,515.65l20.9,11.42c1.28,0.7,3.48,0.56,4.91-0.32l9.69-5.9c1.44-0.87,1.56-2.15,0.29-2.85
					l-20.9-11.42c-1.28-0.7-3.48-0.56-4.91,0.32l-9.69,5.9C434.63,513.67,434.5,514.95,435.78,515.65z"/>
				<path class="st12" d="M394.72,493.2l33.68,18.41c1.28,0.7,3.48,0.56,4.92-0.32l9.69-5.9c1.44-0.88,1.56-2.15,0.29-2.85
					l-33.68-18.41c-1.28-0.7-3.48-0.56-4.91,0.32l-9.69,5.9C393.57,491.23,393.44,492.51,394.72,493.2z"/>
			</g>
		</g>
	</g>
	
		<linearGradient id="SVGID_3_" gradientUnits="userSpaceOnUse" x1="400.0378" y1="871.08" x2="741.6744" y2="871.08" gradientTransform="matrix(0.8468 -0.5319 0.5319 0.8468 -251.8842 378.3296)">
		<stop  offset="0" style="stop-color:#555555;stop-opacity:0"/>
		<stop  offset="0.5076" style="stop-color:#4C4C4C"/>
		<stop  offset="1" style="stop-color:#5C5C5C;stop-opacity:0"/>
	</linearGradient>
	<path class="st13" d="M840.98,723.83c1.54,2.45-93.55,62.66-120.92,79.85c-27.37,17.19-170.95,97.77-172.49,95.32
		c-1.54-2.45,139.55-87,166.92-104.19C741.85,777.62,839.44,721.38,840.98,723.83z"/>
	<g>
		<path class="st14" d="M755.97,461.39l62.16,35.89l-0.2,71.42l-62.16-35.89L755.97,461.39z M808.89,555.4l0.16-55.9l-6.36-3.67
			l-0.16,55.9L808.89,555.4 M798.48,549.39l0.13-47.22l-6.35-3.67l-0.13,47.22L798.48,549.39 M787.83,542.86l0.1-35.97l-6.34-3.66
			l-0.1,35.97L787.83,542.86 M777.44,536.86l0.08-26.82l-6.34-3.66l-0.08,26.82L777.44,536.86 M767.08,530.88l0.05-17.59l-6.35-3.67
			l-0.05,17.59L767.08,530.88"/>
	</g>
	<g>
		<polygon class="st15" points="735.13,572.02 735.2,590.06 440.76,429.36 440.69,415.11 		"/>
	</g>
	<g>
		<g>
			<path class="st16" d="M712.51,377.89l11.65,6.61c0.07,13.96-9.75,19.69-21.96,12.76c-0.47-0.27-0.95-0.55-1.43-0.86
				c-11.01-7.01-20.04-22.35-20.78-35.35c-0.88-15.17,9.26-21.57,21.93-14.39l0.07,13.36c-5.89-3.34-10.63-0.44-10.38,6.48
				c0.25,6.28,4.71,13.87,10.09,17.17c0.13,0.08,0.26,0.16,0.39,0.23C707.88,387.18,712.54,384.48,712.51,377.89z"/>
		</g>
	</g>
	<path class="st17" d="M601.28,274.46l141.51,80.24l0.86,173.24L602.14,447.7L601.28,274.46z M700.77,396.4
		c0.48,0.31,0.95,0.59,1.43,0.86c12.21,6.92,22.03,1.19,21.96-12.76c-0.07-13.97-10.03-30.91-22.24-37.84
		c-12.67-7.18-22.81-0.78-21.93,14.39C680.73,374.04,689.76,389.39,700.77,396.4 M727.59,497.53l-0.32-64.11l-20.69-11.73
		l0.32,64.11L727.59,497.53 M698.24,480.89l-0.25-50.87l-20.69-11.73l0.25,50.87L698.24,480.89 M667.54,463.49l-0.13-25.97
		l-20.69-11.73l0.13,25.98L667.54,463.49 M636.17,445.7l-0.07-13.79l-20.69-11.73l0.07,13.79L636.17,445.7 M614.32,297.76l0.02,3.42
		l43.83,24.85l-0.02-3.42L614.32,297.76 M614.38,309.3l0.02,3.42l13.48,7.64l-0.02-3.42L614.38,309.3"/>
	<g>
		<g>
			<polygon class="st18" points="697.99,430.02 677.3,418.29 677.55,469.16 698.24,480.89 			"/>
		</g>
	</g>
	<g>
		<g>
			<path class="st17" d="M701.99,360.01c5.78,3.28,10.49,11.26,10.52,17.87c0.03,6.59-4.63,9.29-10.42,6.01
				c-0.13-0.07-0.26-0.15-0.39-0.23c-5.38-3.3-9.85-10.89-10.09-17.17C691.36,359.57,696.09,356.67,701.99,360.01z"/>
		</g>
	</g>
	<g>
		<path class="st15" d="M701.92,346.65c12.21,6.93,22.17,23.86,22.24,37.84l-11.65-6.6c-0.03-6.62-4.74-14.6-10.53-17.87
			L701.92,346.65z"/>
	</g>
	<g>
		<g>
			<polygon class="st14" points="502.91,287.25 503.19,343.61 448.96,312.86 448.68,256.5 			"/>
		</g>
	</g>
	<g>
		<polygon class="st19" points="581.88,267.88 583.88,271.53 574,276.09 566.12,271.04 555.45,278.4 545.87,267.78 536.4,272.14 
			524.95,258.23 516.09,244.76 492.85,249.72 484.61,238.61 472.07,236.07 467.31,228.52 454.4,231.79 452.64,227.99 467.51,224.27 
			472.75,232.62 485.08,235.1 492.83,245.57 516.25,240.59 526.63,256.42 535.97,267.73 545.34,263.46 554.73,273.82 564.86,266.83 
			572.91,271.97 		"/>
	</g>
	<g>
		<g>
			<polygon class="st20" points="583.61,331.35 583.89,387.71 529.65,356.96 529.37,300.6 			"/>
		</g>
	</g>
	<g>
		<g>
			<polygon class="st21" points="503.28,360.7 503.56,417.06 449.32,386.31 449.04,329.95 			"/>
		</g>
	</g>
	<path class="st15" d="M446.85,186.91l141.49,80.22l0.24,47.86l-141.49-80.22L446.85,186.91z M574,276.09l9.88-4.56l-2-3.65
		l-8.97,4.09l-8.05-5.15l-10.13,6.99l-9.39-10.36l-9.37,4.26l-9.34-11.31l-10.38-15.83l-23.42,4.98l-7.75-10.47l-12.33-2.48
		l-5.25-8.35l-14.87,3.72l1.76,3.79l12.91-3.27l4.76,7.55l12.54,2.54l8.24,11.12l23.23-4.96l8.87,13.47l11.44,13.92l9.48-4.36
		l9.58,10.62l10.67-7.36L574,276.09"/>
	<g>
		<polygon class="st20" points="818.01,617.19 818.09,634.26 745.3,592.99 745.21,575.92 		"/>
	</g>
	<g>
		<g>
			<polygon class="st15" points="583.97,404.81 584.25,461.16 530.02,430.41 529.74,374.05 			"/>
		</g>
	</g>
	<g>
		<polygon class="st22" points="811.73,433.96 811.75,438.42 786.28,423.98 786.25,419.51 		"/>
	</g>
	<g>
		<g>
			<polygon class="st22" points="811.79,445.04 811.81,449.53 751.6,415.39 751.58,410.9 			"/>
		</g>
	</g>
	<g>
		<g>
			<polygon class="st22" points="811.67,422.29 811.69,426.76 762.86,399.07 762.84,394.61 			"/>
		</g>
	</g>
	<g>
		<g>
			<polygon class="st23" points="811.53,393.67 811.56,400.5 751.78,366.61 751.75,359.78 			"/>
		</g>
	</g>
	<g>
		<g>
			<polygon class="st22" points="811.62,410.75 811.64,415.25 773.27,393.49 773.25,389 			"/>
		</g>
	</g>
	<g>
		<g>
			<polygon class="st18" points="636.11,431.91 636.17,445.7 615.49,433.97 615.42,420.18 			"/>
		</g>
	</g>
	<g>
		<g>
			<polygon class="st18" points="667.42,437.51 667.54,463.49 646.86,451.76 646.73,425.78 			"/>
		</g>
	</g>
	<g>
		<g>
			<polygon class="st18" points="727.27,433.43 727.59,497.53 706.9,485.8 706.59,421.7 			"/>
		</g>
	</g>
	<g>
		<g>
			<polygon class="st24" points="658.15,322.61 658.17,326.02 614.34,301.17 614.32,297.76 			"/>
		</g>
	</g>
	<g>
		<g>
			<polygon class="st24" points="627.86,316.94 627.88,320.36 614.4,312.71 614.38,309.3 			"/>
		</g>
	</g>
	<g>
		<g class="st25">
			<g>
				<path class="st15" d="M635.42,343.93c0.59,0.56,1.05,1.58,0.97,2.36c-0.06,0.49-0.29,0.94-0.09,1.49
					c0.1,0.32,0.33,0.57,0.53,0.81c0.19,0.22,0.39,0.44,0.59,0.63c0.23,0.22,0.47,0.41,0.72,0.51c0.47,0.2,0.95-0.01,0.95-0.62
					c0-0.36-0.17-0.85,0.01-1.05c0.1-0.1,0.23-0.06,0.37,0.07c0.22,0.21,0.43,0.62,0.52,0.97c0.19,0.73,0.29,1.46,0.28,2.15
					c0.71,0.18,1.23-0.39,1.94-0.28c0.34,0.05,0.66,0.25,0.97,0.54c0.84,0.8,1.54,2.35,2.01,3.66c0.2,0.58,0.39,1.35,0.04,1.53
					c-0.2,0.1-0.48-0.08-0.73-0.16c-0.59-0.2-1.1,0.21-1.16,0.93c-0.15,0.02-0.31-0.06-0.45-0.2c-0.04-0.04-0.07-0.07-0.11-0.12
					c-0.24-0.28-0.43-0.7-0.53-1.08c-0.17-0.67-0.19-1.35-0.49-1.97c-0.14-0.3-0.33-0.55-0.54-0.75c-0.46-0.44-1.03-0.65-1.53-0.73
					c-0.72-0.11-1.48-0.11-2.18-0.73c-0.04-0.04-0.08-0.07-0.12-0.11c-0.1-0.09-0.19-0.19-0.29-0.29c-0.1-0.11-0.21-0.22-0.32-0.33
					c-0.12-0.12-0.25-0.22-0.38-0.3c-0.51-0.25-0.97,0.13-1,0.78c-0.04,0.62,0.32,1.43,0.8,1.91c0.74,0.7,1.5,0.69,2.22,0.81
					c0.88,0.16,1.87,0.65,2.71,1.45c0.46,0.44,0.89,0.98,1.23,1.61l0.11,0.22c0.85,1.76,0.76,4.02-0.4,4.34
					c-0.62-1.21-1.29-2.47-2.15-3.29c-0.11-0.11-0.22-0.2-0.34-0.29c-1.72-1.32-3.24-0.28-4.67,0.35c-1.08,0.48-2.27,0.71-3.53,0.67
					c-0.57-0.02-1.16-0.1-1.75-0.5c-0.18-0.12-0.35-0.27-0.52-0.42c-0.26-0.24-0.5-0.52-0.75-0.81c-0.26-0.3-0.53-0.6-0.8-0.86
					c-0.09-0.09-0.19-0.17-0.28-0.25c-1.13-0.88-2.4-0.6-2.78,0.6c-0.05,0.16-0.08,0.34-0.04,0.55l0.1,0.27
					c0.08,0.14,0.18,0.26,0.3,0.37c0.18,0.17,0.38,0.32,0.55,0.48c0.83,0.79,1.1,2.17,1.32,3.37c0.19,1.04,0.56,2.3,1.24,2.95
					c0.09,0.09,0.19,0.16,0.29,0.23c0.68,0.42,1.25,0.02,1.73-0.37c0.46,0.84,0.6,1.78,0.88,2.69c0.21,0.69,0.57,1.44,1.02,1.87
					c0.14,0.14,0.29,0.24,0.45,0.3c0.26,0.09,0.5,0.06,0.75,0.21c0.04,0.03,0.08,0.06,0.12,0.1c0.25,0.24,0.44,0.64,0.59,1.01
					c0.67,1.74,0.91,3.54,1.39,5.3c0.44,1.66,1.18,3.46,2.3,4.53c0.08,0.07,0.15,0.14,0.23,0.21c0.29,0.24,0.64,0.51,0.94,0.8
					c0.46,0.44,0.83,0.93,0.77,1.49c-0.02,0.21-0.12,0.36-0.22,0.51c-0.79,1.19-1.58,2.38-2.38,3.59c-0.21,0.31-0.46,0.65-0.83,0.58
					c-0.21-0.04-0.42-0.19-0.62-0.39c-0.11-0.1-0.22-0.22-0.32-0.34c-0.11-0.11-0.22-0.23-0.32-0.33c-0.17-0.16-0.34-0.3-0.51-0.37
					c-0.99-0.38-1.08,1.38-1.67,2.12c-0.71,0.88-2.11,0.2-3.3-0.12c-0.51-0.13-1.05-0.17-1.36,0.23c-0.2,0.26-0.27,0.66-0.34,1.06
					c-0.26,1.63-0.49,3.49,0.29,5.35c-0.27,0.54-0.96,0.35-1.53-0.19c-0.18-0.17-0.35-0.38-0.49-0.61
					c-0.58-0.94-0.76-2.08-0.92-3.13c-0.52-3.52-0.91-7.28,0.26-9.71c0.56-1.17,1.48-2.05,1.48-3.66c0-1.03-0.4-2.17-0.72-3.26
					c-0.61-2.05-0.99-4.39-0.17-5.61c0.38-0.56,0.96-0.81,1.35-1.34c0.39-0.55,0.52-1.59-0.01-2.4c-0.13-0.2-0.29-0.36-0.45-0.52
					c-0.08-0.08-0.16-0.15-0.25-0.23c-0.09-0.08-0.17-0.15-0.25-0.23c-0.19-0.18-0.36-0.37-0.49-0.63c-0.45-0.83-0.2-1.79-0.59-2.66
					c-0.22-0.49-0.59-0.85-0.9-1.28c-0.29-0.42-0.53-1.08-0.32-1.37c-0.4,0.16-0.93-0.05-1.38-0.48c-0.3-0.28-0.56-0.66-0.73-1.09
					c-0.53-1.38-0.02-2.57,0.13-3.81c0.15-1.24-0.09-2.74-0.66-4.13c-0.4,1.06-0.51,2.41-0.29,3.82c-0.13-0.03-0.26-0.11-0.38-0.23
					c-0.33-0.31-0.59-0.87-0.66-1.36c-0.12-0.69,0.01-1.27,0.06-1.87c0.13-1.47-0.15-3.18-0.77-4.8c3.52-3.12,8.06-4.3,13-3.47
					c-0.68,0.29-1.28,0.77-1.73,1.45c1.05,1.31,2.1,2.63,3.14,3.94c0.12,0.16,0.26,0.32,0.4,0.45c0.2,0.19,0.41,0.32,0.59,0.27
					c0.45-0.12,0.26-1.08-0.02-1.76c-0.29-0.69-0.61-1.57-0.3-1.94c0.12-0.14,0.32-0.14,0.53-0.09
					C635.01,343.6,635.23,343.74,635.42,343.93z"/>
			</g>
			<g>
				<path class="st15" d="M653.11,369.06l-0.11,0.5c0.12-0.01,0.26,0.06,0.38,0.17c0.21,0.2,0.39,0.55,0.39,0.85
					c0.01,0.46-0.38,0.68-0.74,0.43c-0.04-0.03-0.09-0.06-0.13-0.1c-0.29-0.28-0.5-0.8-0.47-1.19
					C652.46,369.26,652.76,369,653.11,369.06z"/>
			</g>
			<g>
				<polygon class="st15" points="655.09,368.64 655.2,368.96 655.12,369.14 				"/>
			</g>
			<g>
				<path class="st15" d="M655.6,369.05c0.19,0.18,0.32,0.48,0.4,0.76c0.19,0.55,0.29,1.13,0.23,1.6c-0.07,0.49-0.31,0.85-0.69,0.88
					c-0.43-0.72-0.61-1.64-0.47-2.31c0.07-0.32,0.19-0.67,0.14-1.02C655.29,368.88,655.47,368.92,655.6,369.05z"/>
			</g>
			<g>
				<path class="st15" d="M660.55,369.79c3.99,10.32,5.04,21.41,2.14,29.96c-1.78,5.24-4.81,8.82-8.58,10.71
					c-0.15-0.13-0.3-0.27-0.45-0.41c-0.91-0.86-1.78-1.94-2.61-2.96c-0.2-0.26-0.41-0.52-0.53-0.83c-0.42-1.01,0.21-1.73,0.22-2.68
					c0.02-0.64-0.24-1.34-0.42-2.02c-0.17-0.68-0.24-1.46,0.1-1.77c0.56-0.51,1.79,0.62,2.25-0.05c0.44-0.64-0.33-1.99-0.58-3.06
					c-0.35-1.54,0.43-2.52,0.79-3.71c0.06-0.23,0.12-0.49,0.01-0.77c-0.08-0.23-0.25-0.4-0.41-0.55c-0.62-0.58-1.35-0.9-1.95-1.47
					c-0.21-0.2-0.4-0.43-0.57-0.71c-0.24-0.4-0.4-0.88-0.66-1.28c-0.12-0.18-0.25-0.33-0.38-0.46c-0.29-0.28-0.61-0.46-0.95-0.66
					c-0.32-0.18-0.65-0.38-0.94-0.66c-0.05-0.05-0.11-0.1-0.16-0.16c-0.59-0.64-0.92-1.65-1-2.51c-0.07-0.88,0.07-1.64,0.24-2.38
					c0.33-1.51,0.8-3.12,1.98-3.34c0.23-0.04,0.47-0.03,0.66-0.17c0.38-0.31,0.33-1.2,0.72-1.49c0.37-0.28,0.95,0.07,1.44,0.4
					c0.89,0.6,1.79,1.21,2.7,1.81c0.5,0.34,1.03,0.7,1.5,1.15c0.37,0.35,0.71,0.75,0.99,1.24c0.46,0.78,0.72,1.74,1.29,2.36
					c0.04,0.05,0.09,0.09,0.13,0.13c0.5,0.47,1.08,0.63,1.6,1.06c0.05,0.04,0.11,0.09,0.16,0.14c0.05,0.05,0.1,0.1,0.15,0.16
					c0.9,1.01,1.45,2.64,2.37,3.62c0.48,0.46,1.07,0.65,1.16,0.14c0.06-0.33-0.13-0.75-0.3-1.12c-0.47-0.96-0.95-1.93-1.42-2.9
					c-0.11-0.22-0.25-0.47-0.4-0.62c-0.06-0.06-0.13-0.1-0.2-0.12c-0.25-0.06-0.35,0.24-0.47,0.47c-0.11,0.21-0.34,0.35-0.54,0.16
					c0.62-1.75-0.21-4.75-1.79-6.35c0.32,1.1,0.63,2.2,0.96,3.31c-0.36-0.71-0.78-1.38-1.24-2c0.15,0.52,0.3,1.03,0.44,1.56
					l0.05,0.35c-0.04,0.16-0.23,0.15-0.38,0.1c-0.23-0.06-0.49-0.18-0.7-0.38c-0.15-0.14-0.26-0.31-0.3-0.53
					c-0.07-0.37,0.13-0.59,0.25-0.84c0.14-0.29,0.18-0.72,0.04-1.14c-0.07-0.22-0.21-0.43-0.36-0.58c-0.14-0.13-0.29-0.21-0.42-0.19
					c-0.13,0.01-0.24,0.12-0.37,0.16c-0.25,0.09-0.56-0.07-0.85-0.24c-0.55-0.29-1.09-0.58-1.62-0.87
					c-0.46-0.25-0.95-0.53-1.38-0.94c-0.2-0.19-0.38-0.41-0.55-0.66c-0.51-0.81-0.57-2.1,0.05-2.17c0.28-0.03,0.58,0.19,0.88,0.48
					c0.11,0.11,0.23,0.22,0.34,0.34c0.08,0.08,0.16,0.16,0.24,0.24c0.04,0.04,0.08,0.08,0.12,0.11c0.53,0.49,1.34,0.57,1.24-0.17
					c-0.04-0.28-0.21-0.61-0.14-0.83c0.07-0.21,0.32-0.14,0.51,0.05c0.03,0.03,0.07,0.07,0.1,0.11c0.21,0.27,0.33,0.59,0.54,0.86
					c0.05,0.07,0.11,0.13,0.16,0.18c0.82,0.78,1.77-0.31,2.72,0.36c0.07,0.05,0.13,0.1,0.19,0.16c0.29,0.28,0.54,0.68,0.82,1.02
					c0.13,0.17,0.27,0.32,0.42,0.46c0.61,0.58,1.31,0.91,1.91,0.87c-0.2-1.2-0.58-2.69-1.34-3.42c-0.11-0.11-0.23-0.2-0.36-0.27
					c-0.38-0.21-0.74-0.17-1.12-0.31c-0.15-0.06-0.31-0.16-0.46-0.3c-0.22-0.21-0.4-0.49-0.43-0.79c-0.02-0.23,0.04-0.42,0.11-0.59
					c0.21-0.55,0.47-1.12,0.96-1.18c0.25-0.03,0.52,0.08,0.77,0.09C660.07,370.48,660.35,370.21,660.55,369.79z"/>
			</g>
			<g>
				<path class="st15" d="M648.35,346.77c14.9,14.18,22.49,39.05,16.92,55.44c-5.57,16.38-22.22,18.18-37.12,4
					c-14.89-14.18-22.49-39.05-16.93-55.43C616.8,334.38,633.46,332.59,648.35,346.77z M629.12,403.36
					c8.71,8.29,18.09,10.55,24.99,7.1c3.77-1.89,6.8-5.47,8.58-10.71c2.9-8.54,1.85-19.64-2.14-29.96
					c-2.93-7.58-7.45-14.75-13.16-20.18c-5.04-4.8-10.31-7.57-15.19-8.39c-4.94-0.83-9.48,0.35-13,3.47
					c-2.29,2.03-4.14,4.89-5.39,8.54C608.78,368.06,615.64,390.54,629.12,403.36"/>
			</g>
		</g>
	</g>
</g>
<rect y="954" width="1024" height="70"/>
<g>
	<path class="st19" d="M314.4,974.25h4.52c3.56,0,6.49,0.94,8.79,2.81c2.32,1.86,3.48,4.53,3.48,8.01c0,3.58-1.15,6.32-3.45,8.21
		c-2.3,1.9-5.27,2.84-8.9,2.84h-4.44V974.25z M317.12,993.63h0.95c1.42,0,2.75-0.15,4.01-0.43c1.25-0.28,2.35-0.76,3.29-1.42
		c0.94-0.66,1.69-1.54,2.25-2.61c0.56-1.08,0.84-2.41,0.84-3.99c0-1.56-0.28-2.89-0.83-4.02c-0.55-1.11-1.32-1.98-2.3-2.6
		c-0.99-0.63-2.07-1.1-3.27-1.39c-1.19-0.29-2.51-0.44-3.99-0.44h-0.95V993.63z"/>
	<path class="st19" d="M335.2,989.76c0.04,1.21,0.43,2.27,1.16,3.17c0.76,0.89,1.73,1.33,2.93,1.33c0.95,0,1.73-0.21,2.34-0.65
		c0.61-0.43,1.19-1.1,1.73-1.99l2.2,1.25c-0.64,1.16-1.51,2.06-2.63,2.72c-1.11,0.65-2.34,0.99-3.67,0.99
		c-2.02,0-3.65-0.68-4.87-2.03c-1.2-1.38-1.8-3.08-1.8-5.11c0-2.14,0.57-3.91,1.71-5.29c1.12-1.35,2.75-2.03,4.9-2.03
		c2.09,0,3.66,0.68,4.73,2.03c1.08,1.35,1.62,3.08,1.62,5.2v0.4H335.2z M342.95,987.79c-0.16-1.04-0.55-1.88-1.2-2.48
		c-0.65-0.6-1.49-0.92-2.54-0.92c-0.5,0-0.97,0.09-1.4,0.26c-0.44,0.16-0.82,0.4-1.17,0.7c-0.33,0.32-0.61,0.69-0.83,1.1
		c-0.22,0.41-0.37,0.87-0.45,1.35H342.95z"/>
	<path class="st19" d="M353.25,985.65c-0.39-0.8-0.97-1.19-1.74-1.19c-0.36,0-0.7,0.12-0.99,0.39c-0.29,0.26-0.43,0.59-0.43,0.95
		c0,0.35,0.11,0.64,0.33,0.88c0.22,0.24,0.52,0.47,0.91,0.69c0.26,0.11,0.45,0.21,0.58,0.27c0.13,0.07,0.36,0.17,0.67,0.31
		c0.15,0.08,0.29,0.15,0.41,0.18c0.11,0.04,0.2,0.07,0.25,0.12c0.97,0.44,1.73,0.96,2.29,1.53c0.56,0.59,0.84,1.36,0.84,2.33
		c0,1.28-0.46,2.35-1.39,3.22c-0.91,0.86-2,1.28-3.28,1.28c-0.52,0-1.02-0.08-1.5-0.22c-0.49-0.14-0.94-0.35-1.35-0.61
		c-0.42-0.27-0.78-0.58-1.11-0.95c-0.31-0.38-0.57-0.8-0.73-1.27l2.23-1.01c0.63,1.16,1.46,1.74,2.46,1.74
		c0.41,0,0.79-0.11,1.14-0.33c0.35-0.22,0.6-0.51,0.77-0.85c0.16-0.34,0.2-0.7,0.1-1.1c-0.1-0.4-0.4-0.78-0.9-1.12l-2.56-1.37
		c-0.45-0.23-0.83-0.45-1.16-0.69c-0.33-0.24-0.6-0.49-0.81-0.75c-0.21-0.27-0.37-0.55-0.48-0.87c-0.11-0.32-0.16-0.69-0.16-1.13
		c0-1.1,0.39-2.02,1.17-2.78c0.77-0.77,1.72-1.16,2.84-1.16c1.7,0,2.94,0.8,3.71,2.38L353.25,985.65z"/>
	<path class="st19" d="M362.62,976.33c0,0.49-0.17,0.9-0.53,1.26c-0.34,0.34-0.77,0.5-1.27,0.5c-0.51,0-0.93-0.16-1.28-0.5
		c-0.35-0.36-0.52-0.77-0.52-1.26c0-0.5,0.17-0.93,0.52-1.3c0.35-0.36,0.77-0.53,1.28-0.53c0.5,0,0.93,0.17,1.27,0.53
		C362.45,975.4,362.62,975.83,362.62,976.33z M362.12,996.12h-2.61v-13.58h2.61V996.12z"/>
	<path class="st19" d="M379.02,995.86c0,2.55-0.49,4.52-1.46,5.94c-0.96,1.4-2.69,2.09-5.16,2.09c-1.91,0-3.48-0.55-4.7-1.66
		c-1.2-1.1-1.82-2.6-1.86-4.49h2.61c0,1.21,0.38,2.15,1.12,2.83c0.74,0.67,1.73,1,2.95,1c1.49,0,2.51-0.44,3.06-1.31
		c0.55-0.87,0.82-2.1,0.82-3.68V994h-0.05c-0.55,0.82-1.21,1.45-2.02,1.9c-0.81,0.46-1.67,0.69-2.6,0.69c-2.01,0-3.6-0.71-4.76-2.12
		c-1.16-1.41-1.74-3.16-1.74-5.22c0-1.96,0.59-3.62,1.77-4.99c1.19-1.41,2.72-2.12,4.61-2.12c2,0,3.57,0.91,4.73,2.73h0.05v-2.33
		h2.62V995.86z M372.14,994.26c1.37,0,2.44-0.47,3.22-1.42c0.79-0.96,1.19-2.14,1.19-3.51c0-1.35-0.39-2.5-1.19-3.46
		c-0.77-0.94-1.85-1.41-3.22-1.41c-1.3,0-2.34,0.47-3.14,1.45c-0.77,0.95-1.16,2.08-1.16,3.42c0,1.37,0.39,2.54,1.16,3.48
		C369.8,993.78,370.84,994.26,372.14,994.26z"/>
	<path class="st19" d="M385.03,984.36h0.05c0.39-0.71,0.96-1.27,1.69-1.65c0.73-0.39,1.54-0.58,2.41-0.58c0.89,0,1.64,0.14,2.26,0.4
		c0.62,0.27,1.12,0.66,1.5,1.16c0.38,0.5,0.65,1.12,0.81,1.84c0.17,0.73,0.25,1.55,0.25,2.49v8.09h-2.6v-7.77
		c0-1.34-0.2-2.31-0.59-2.93c-0.39-0.64-1.19-0.95-2.41-0.95c-0.45,0-0.82,0.04-1.13,0.12c-0.31,0.09-0.58,0.22-0.81,0.37
		c-0.23,0.17-0.42,0.37-0.58,0.57c-0.15,0.21-0.3,0.45-0.43,0.71c-0.06,0.13-0.12,0.3-0.16,0.52c-0.05,0.21-0.09,0.43-0.13,0.66
		c-0.04,0.22-0.08,0.44-0.09,0.66c-0.02,0.23-0.02,0.4-0.02,0.54v1.28v6.23h-2.62v-13.58h2.62V984.36z"/>
	<path class="st19" d="M405.77,970.93h2.61v13.87h0.05c1.2-1.77,2.78-2.67,4.73-2.67c1.9,0,3.43,0.71,4.62,2.12
		c1.18,1.37,1.77,3.03,1.77,4.99c0,2.06-0.59,3.81-1.74,5.22c-1.17,1.41-2.75,2.12-4.76,2.12c-0.93,0-1.8-0.23-2.6-0.69
		c-0.8-0.45-1.47-1.09-2.02-1.9h-0.05v2.12h-2.61V970.93z M412.52,994.26c1.38,0,2.45-0.47,3.23-1.42c0.79-0.96,1.18-2.14,1.18-3.51
		c0-1.35-0.39-2.5-1.18-3.46c-0.78-0.94-1.85-1.41-3.23-1.41c-1.3,0-2.34,0.47-3.13,1.45c-0.78,0.95-1.16,2.08-1.16,3.42
		c0,1.37,0.38,2.54,1.16,3.48C410.18,993.78,411.23,994.26,412.52,994.26z"/>
	<path class="st19" d="M419.93,982.54h3.04l4.58,8.62l4.26-8.62h2.94l-11,21.36h-2.96l5.34-10.1L419.93,982.54z"/>
	<path class="st19" d="M447.93,990.63l-2.5,5.49h-2.93l10.45-22.81l10.44,22.81h-2.92l-2.49-5.49H447.93z M452.95,979.29l-3.9,8.85
		h7.78L452.95,979.29z"/>
	<path class="st19" d="M467.66,996.12h-2.61v-25.19h2.61V996.12z"/>
	<path class="st19" d="M474.1,996.12h-2.61v-25.19h2.61V996.12z"/>
	<path class="st19" d="M484.02,985.74v2.17h-6.36v-2.17H484.02z"/>
	<path class="st19" d="M494.17,973.57c-0.81-0.37-1.38-0.55-1.73-0.55c-0.57,0-0.97,0.17-1.22,0.53c-0.26,0.36-0.43,0.79-0.52,1.32
		c-0.06,0.38-0.09,0.69-0.11,0.91c0,0.23,0,0.53,0,0.92v5.82h3.58v2.44h-3.58v11.15h-2.62v-11.15h-1.18v-2.44h1.18v-6.61
		c0-3.56,1.47-5.35,4.39-5.35c0.64,0,1.24,0.13,1.81,0.35V973.57z"/>
	<path class="st19" d="M498.2,984.74h0.09c0.33-0.81,0.81-1.45,1.46-1.91c0.64-0.46,1.39-0.7,2.26-0.7c0.72,0,1.43,0.22,2.16,0.67
		l-1.19,2.38c-0.43-0.38-0.96-0.55-1.6-0.55c-1.35,0-2.23,0.54-2.67,1.62c-0.2,0.5-0.33,1-0.39,1.49c-0.06,0.48-0.11,1.06-0.11,1.7
		v6.67h-2.6v-13.58h2.6V984.74z"/>
	<path class="st19" d="M507.18,989.76c0.03,1.21,0.42,2.27,1.16,3.17c0.75,0.89,1.72,1.33,2.92,1.33c0.94,0,1.73-0.21,2.34-0.65
		c0.61-0.43,1.19-1.1,1.72-1.99l2.2,1.25c-0.63,1.16-1.51,2.06-2.62,2.72c-1.11,0.65-2.34,0.99-3.67,0.99
		c-2.03,0-3.65-0.68-4.87-2.03c-1.2-1.38-1.8-3.08-1.8-5.11c0-2.14,0.57-3.91,1.71-5.29c1.12-1.35,2.75-2.03,4.9-2.03
		c2.09,0,3.67,0.68,4.74,2.03c1.07,1.35,1.61,3.08,1.61,5.2v0.4H507.18z M514.93,987.79c-0.16-1.04-0.56-1.88-1.2-2.48
		c-0.65-0.6-1.49-0.92-2.54-0.92c-0.5,0-0.97,0.09-1.41,0.26c-0.43,0.16-0.82,0.4-1.15,0.7c-0.34,0.32-0.63,0.69-0.86,1.1
		c-0.22,0.41-0.37,0.87-0.44,1.35H514.93z"/>
	<path class="st19" d="M521.35,989.76c0.03,1.21,0.42,2.27,1.15,3.17c0.75,0.89,1.73,1.33,2.93,1.33c0.95,0,1.73-0.21,2.33-0.65
		c0.61-0.43,1.18-1.1,1.73-1.99l2.2,1.25c-0.63,1.16-1.49,2.06-2.62,2.72c-1.12,0.65-2.33,0.99-3.67,0.99
		c-2.04,0-3.66-0.68-4.88-2.03c-1.19-1.38-1.79-3.08-1.79-5.11c0-2.14,0.56-3.91,1.71-5.29c1.12-1.35,2.76-2.03,4.9-2.03
		c2.08,0,3.66,0.68,4.72,2.03c1.09,1.35,1.63,3.08,1.63,5.2v0.4H521.35z M529.09,987.79c-0.15-1.04-0.56-1.88-1.22-2.48
		c-0.64-0.6-1.48-0.92-2.53-0.92c-0.51,0-0.97,0.09-1.41,0.26c-0.43,0.16-0.81,0.4-1.15,0.7c-0.34,0.32-0.63,0.69-0.84,1.1
		c-0.23,0.41-0.38,0.87-0.46,1.35H529.09z"/>
	<path class="st19" d="M540.14,985.74v2.17h-6.36v-2.17H540.14z"/>
	<path class="st19" d="M553.69,994h-0.06c-0.54,0.82-1.21,1.45-2.01,1.9c-0.81,0.46-1.68,0.69-2.6,0.69c-2.01,0-3.6-0.71-4.75-2.12
		c-1.17-1.41-1.75-3.16-1.75-5.22c0-1.96,0.59-3.62,1.78-4.99c1.18-1.41,2.72-2.12,4.61-2.12c1.95,0,3.53,0.89,4.73,2.67h0.06
		v-13.87h2.6v25.19h-2.6V994z M549.42,994.26c1.37,0,2.45-0.47,3.22-1.42c0.79-0.96,1.2-2.14,1.2-3.51c0-1.35-0.4-2.5-1.2-3.46
		c-0.77-0.94-1.85-1.41-3.22-1.41c-1.3,0-2.34,0.47-3.13,1.45c-0.77,0.95-1.16,2.08-1.16,3.42c0,1.37,0.39,2.54,1.16,3.48
		C547.08,993.78,548.13,994.26,549.42,994.26z"/>
	<path class="st19" d="M560.57,984.22c1.41-1.39,3.14-2.09,5.17-2.09c2.03,0,3.74,0.7,5.12,2.09c1.42,1.38,2.12,3.12,2.12,5.14
		c0,2.03-0.7,3.74-2.12,5.15c-1.38,1.38-3.09,2.08-5.12,2.08c-2.04,0-3.76-0.7-5.17-2.08c-1.39-1.41-2.09-3.12-2.09-5.15
		C558.47,987.34,559.17,985.6,560.57,984.22z M561.08,989.36c0,1.25,0.47,2.36,1.38,3.32c0.89,0.95,1.99,1.4,3.28,1.4
		c1.27,0,2.37-0.46,3.27-1.4c0.91-0.96,1.36-2.07,1.36-3.32c0-1.28-0.45-2.4-1.36-3.34c-0.9-0.93-2-1.39-3.27-1.39
		c-1.29,0-2.4,0.46-3.28,1.39C561.55,986.96,561.08,988.08,561.08,989.36z"/>
	<path class="st19" d="M580.01,991.19l3.99-9.41l3.98,9.41l3.95-8.66h2.95l-6.9,14.05l-3.98-9.08l-3.99,9.08l-6.91-14.05h2.96
		L580.01,991.19z"/>
	<path class="st19" d="M598.81,984.36h0.06c0.38-0.71,0.94-1.27,1.68-1.65c0.74-0.39,1.54-0.58,2.41-0.58c0.89,0,1.65,0.14,2.27,0.4
		c0.62,0.27,1.11,0.66,1.49,1.16c0.38,0.5,0.65,1.12,0.8,1.84c0.17,0.73,0.25,1.55,0.25,2.49v8.09h-2.61v-7.77
		c0-1.34-0.18-2.31-0.58-2.93c-0.39-0.64-1.18-0.95-2.42-0.95c-0.44,0-0.81,0.04-1.13,0.12c-0.3,0.09-0.58,0.22-0.81,0.37
		c-0.23,0.17-0.42,0.37-0.58,0.57c-0.16,0.21-0.3,0.45-0.43,0.71c-0.06,0.13-0.12,0.3-0.16,0.52c-0.05,0.21-0.1,0.43-0.13,0.66
		c-0.04,0.22-0.06,0.44-0.1,0.66c-0.01,0.23-0.02,0.4-0.02,0.54v1.28v6.23h-2.61v-13.58h2.61V984.36z"/>
	<path class="st19" d="M614.1,996.12h-2.62v-25.19h2.62V996.12z"/>
	<path class="st19" d="M618.69,984.22c1.4-1.39,3.13-2.09,5.17-2.09c2.03,0,3.73,0.7,5.14,2.09c1.4,1.38,2.1,3.12,2.1,5.14
		c0,2.03-0.7,3.74-2.1,5.15c-1.41,1.38-3.11,2.08-5.14,2.08c-2.04,0-3.77-0.7-5.17-2.08c-1.4-1.41-2.09-3.12-2.09-5.15
		C616.59,987.34,617.28,985.6,618.69,984.22z M619.21,989.36c0,1.25,0.46,2.36,1.36,3.32c0.89,0.95,1.99,1.4,3.29,1.4
		c1.27,0,2.36-0.46,3.28-1.4c0.9-0.96,1.35-2.07,1.35-3.32c0-1.28-0.45-2.4-1.35-3.34c-0.92-0.93-2.01-1.39-3.28-1.39
		c-1.3,0-2.4,0.46-3.29,1.39C619.67,986.96,619.21,988.08,619.21,989.36z"/>
	<path class="st19" d="M646.23,996.12h-2.62V994h-0.06c-1.16,1.72-2.7,2.59-4.62,2.59c-1.99,0-3.58-0.71-4.76-2.12
		c-1.16-1.41-1.74-3.16-1.74-5.22c0-1.96,0.58-3.62,1.77-4.99c1.18-1.41,2.73-2.12,4.63-2.12c1.94,0,3.51,0.89,4.71,2.67h0.06v-2.26
		h2.62V996.12z M639.34,994.26c1.38,0,2.45-0.47,3.22-1.42c0.79-0.96,1.19-2.14,1.19-3.51c0-1.35-0.4-2.5-1.19-3.46
		c-0.78-0.94-1.84-1.41-3.22-1.41c-1.29,0-2.34,0.47-3.13,1.45c-0.78,0.95-1.17,2.08-1.17,3.42c0,1.37,0.39,2.54,1.17,3.48
		C637,993.78,638.05,994.26,639.34,994.26z"/>
	<path class="st19" d="M659.74,994h-0.05c-0.55,0.82-1.23,1.45-2.02,1.9c-0.8,0.46-1.67,0.69-2.6,0.69c-2.02,0-3.61-0.71-4.77-2.12
		c-1.16-1.41-1.74-3.16-1.74-5.22c0-1.96,0.6-3.62,1.77-4.99c1.18-1.41,2.72-2.12,4.62-2.12c1.95,0,3.52,0.89,4.73,2.67h0.05v-13.87
		h2.62v25.19h-2.62V994z M655.48,994.26c1.37,0,2.44-0.47,3.21-1.42c0.79-0.96,1.19-2.14,1.19-3.51c0-1.35-0.4-2.5-1.19-3.46
		c-0.78-0.94-1.84-1.41-3.21-1.41c-1.3,0-2.34,0.47-3.13,1.45c-0.77,0.95-1.16,2.08-1.16,3.42c0,1.37,0.39,2.54,1.16,3.48
		C653.13,993.78,654.18,994.26,655.48,994.26z"/>
	<path class="st19" d="M669.84,994.9c0,0.47-0.16,0.86-0.48,1.19c-0.34,0.33-0.74,0.5-1.21,0.5c-0.47,0-0.86-0.17-1.18-0.5
		c-0.34-0.33-0.5-0.72-0.5-1.19c0-0.44,0.16-0.84,0.5-1.18c0.32-0.33,0.71-0.5,1.18-0.5c0.46,0,0.86,0.17,1.21,0.5
		C669.68,994.06,669.84,994.45,669.84,994.9z"/>
	<path class="st19" d="M684.11,986.39c-1.08-1.22-2.38-1.83-3.88-1.83c-1.26,0-2.34,0.48-3.23,1.42c-0.88,0.96-1.29,2.09-1.29,3.34
		c0,1.42,0.42,2.57,1.29,3.45c0.91,0.92,2.04,1.37,3.39,1.37c1.39,0,2.64-0.62,3.72-1.8v3.33c-1.12,0.6-2.37,0.91-3.74,0.91
		c-2.02,0-3.74-0.7-5.17-2.07c-1.41-1.34-2.1-3.04-2.1-5.07c0-2.09,0.69-3.84,2.1-5.23c1.42-1.39,3.19-2.09,5.32-2.09
		c1.4,0,2.6,0.3,3.6,0.89V986.39z"/>
	<path class="st19" d="M687.8,984.22c1.41-1.39,3.14-2.09,5.16-2.09c2.03,0,3.75,0.7,5.13,2.09c1.42,1.38,2.12,3.12,2.12,5.14
		c0,2.03-0.7,3.74-2.12,5.15c-1.38,1.38-3.1,2.08-5.13,2.08c-2.03,0-3.75-0.7-5.16-2.08c-1.39-1.41-2.09-3.12-2.09-5.15
		C685.71,987.34,686.41,985.6,687.8,984.22z M688.33,989.36c0,1.25,0.45,2.36,1.37,3.32c0.87,0.95,1.98,1.4,3.27,1.4
		c1.27,0,2.38-0.46,3.28-1.4c0.91-0.96,1.36-2.07,1.36-3.32c0-1.28-0.45-2.4-1.36-3.34c-0.9-0.93-2-1.39-3.28-1.39
		c-1.29,0-2.4,0.46-3.27,1.39C688.78,986.96,688.33,988.08,688.33,989.36z"/>
	<path class="st19" d="M705.13,984.25h0.06c0.39-0.62,0.89-1.12,1.55-1.52c0.65-0.4,1.33-0.6,2.04-0.6c1.69,0,2.99,0.8,3.93,2.41
		c0.42-0.73,1.01-1.32,1.76-1.77c0.74-0.43,1.55-0.65,2.41-0.65c3.01,0,4.5,1.96,4.5,5.86v8.13h-2.61v-7.69
		c0-0.34-0.01-0.69-0.05-1.02c-0.02-0.35-0.08-0.68-0.15-0.99c-0.08-0.33-0.19-0.63-0.35-0.9c-0.16-0.26-0.38-0.51-0.64-0.72
		c-0.35-0.23-0.8-0.34-1.33-0.34c-0.55,0-1.01,0.11-1.39,0.34c-0.38,0.21-0.66,0.48-0.86,0.79c-0.21,0.32-0.37,0.73-0.47,1.21
		c-0.12,0.48-0.19,0.92-0.22,1.31c-0.03,0.38-0.04,0.83-0.04,1.34v6.67h-2.62v-7.2c0-0.46,0-0.84-0.02-1.15
		c-0.03-0.32-0.08-0.7-0.18-1.16c-0.09-0.51-0.21-0.87-0.37-1.11c-0.16-0.27-0.4-0.5-0.72-0.72c-0.34-0.21-0.73-0.31-1.19-0.31
		c-1.33,0-2.2,0.57-2.59,1.73c-0.17,0.56-0.29,1.05-0.35,1.55c-0.06,0.47-0.08,1.04-0.08,1.71v6.67h-2.62v-13.58h2.62V984.25z"/>
</g>
</svg>
